<?xml version="1.0" encoding="UTF-8"?>
<!-- Do not edit this file with editors other than draw.io -->
<!DOCTYPE svg PUBLIC "-//W3C//DTD SVG 1.1//EN" "http://www.w3.org/Graphics/SVG/1.1/DTD/svg11.dtd">
<svg xmlns="http://www.w3.org/2000/svg" style="background: #ffffff; background-color: light-dark(#ffffff, var(--ge-dark-color, #121212)); color-scheme: light dark;" xmlns:xlink="http://www.w3.org/1999/xlink" version="1.1" width="751px" height="369px" viewBox="0 0 751 369" content="&lt;mxfile host=&quot;app.diagrams.net&quot; agent=&quot;Mozilla/5.0 (Windows NT 10.0; Win64; x64; rv:145.0) Gecko/20100101 Firefox/145.0&quot; version=&quot;28.2.9&quot; scale=&quot;1&quot; border=&quot;0&quot;&gt;&#xA;  &lt;diagram name=&quot;Seite-1&quot; id=&quot;9iJphFlUeK5Lxbt65DPF&quot;&gt;&#xA;    &lt;mxGraphModel dx=&quot;1042&quot; dy=&quot;536&quot; grid=&quot;1&quot; gridSize=&quot;10&quot; guides=&quot;1&quot; tooltips=&quot;1&quot; connect=&quot;1&quot; arrows=&quot;1&quot; fold=&quot;1&quot; page=&quot;1&quot; pageScale=&quot;1&quot; pageWidth=&quot;827&quot; pageHeight=&quot;1169&quot; math=&quot;0&quot; shadow=&quot;0&quot;&gt;&#xA;      &lt;root&gt;&#xA;        &lt;mxCell id=&quot;0&quot; /&gt;&#xA;        &lt;mxCell id=&quot;1&quot; parent=&quot;0&quot; /&gt;&#xA;        &lt;mxCell id=&quot;wBIvI0dQtw_C0u7ipJk1-1&quot; value=&quot;&amp;lt;strong&amp;gt;digital-twin-manager&amp;lt;/strong&amp;gt;&quot; style=&quot;ellipse;whiteSpace=wrap;html=1;&quot; parent=&quot;1&quot; vertex=&quot;1&quot;&gt;&#xA;          &lt;mxGeometry x=&quot;50&quot; y=&quot;170&quot; width=&quot;210&quot; height=&quot;200&quot; as=&quot;geometry&quot; /&gt;&#xA;        &lt;/mxCell&gt;&#xA;        &lt;mxCell id=&quot;wBIvI0dQtw_C0u7ipJk1-2&quot; value=&quot;&amp;lt;b&amp;gt;&amp;lt;u&amp;gt;SysML2CMAdapter&amp;lt;/u&amp;gt;&amp;lt;/b&amp;gt;&quot; style=&quot;ellipse;whiteSpace=wrap;html=1;&quot; parent=&quot;1&quot; vertex=&quot;1&quot;&gt;&#xA;          &lt;mxGeometry x=&quot;320&quot; y=&quot;170&quot; width=&quot;210&quot; height=&quot;200&quot; as=&quot;geometry&quot; /&gt;&#xA;        &lt;/mxCell&gt;&#xA;        &lt;mxCell id=&quot;wBIvI0dQtw_C0u7ipJk1-12&quot; style=&quot;edgeStyle=orthogonalEdgeStyle;rounded=0;orthogonalLoop=1;jettySize=auto;html=1;dashed=1;&quot; parent=&quot;1&quot; source=&quot;wBIvI0dQtw_C0u7ipJk1-3&quot; target=&quot;wBIvI0dQtw_C0u7ipJk1-11&quot; edge=&quot;1&quot;&gt;&#xA;          &lt;mxGeometry relative=&quot;1&quot; as=&quot;geometry&quot; /&gt;&#xA;        &lt;/mxCell&gt;&#xA;        &lt;UserObject label=&quot;&amp;lt;strong class=&amp;quot;mr-2 flex-self-stretch d-none d-md-block no-wrap overflow-x-hidden&amp;quot;&amp;gt;Enterprise Architect&amp;lt;/strong&amp;gt;&quot; link=&quot;&amp;#xa;&amp;lt;strong class=&amp;quot;mr-2 flex-self-stretch d-none d-md-block no-wrap overflow-x-hidden&amp;quot;&amp;gt;&amp;lt;br&amp;gt;    &amp;lt;a data-pjax=&amp;quot;#repo-content-pjax-container&amp;quot; data-turbo-frame=&amp;quot;repo-content-turbo-frame&amp;quot; class=&amp;quot;d-block overflow-x-hidden color-fg-default&amp;quot; style=&amp;quot;text-overflow: ellipsis;&amp;quot; href=&amp;quot;https://github.com/cloud-DTs/SysML2CMAdapter&amp;quot;&amp;gt;SysML2CMAdapter&amp;lt;/a&amp;gt;&amp;lt;br&amp;gt;  &amp;lt;/strong&amp;gt;&amp;lt;br&amp;gt;&amp;lt;br&amp;gt;  &amp;lt;span&amp;gt;&amp;lt;/span&amp;gt;&amp;lt;span class=&amp;quot;Label Label--secondary v-align-middle mr-1 d-none d-md-block&amp;quot;&amp;gt;&amp;lt;/span&amp;gt;&amp;#xa;&amp;#xa;&quot; id=&quot;wBIvI0dQtw_C0u7ipJk1-3&quot;&gt;&#xA;          &lt;mxCell style=&quot;ellipse;whiteSpace=wrap;html=1;&quot; parent=&quot;1&quot; vertex=&quot;1&quot;&gt;&#xA;            &lt;mxGeometry x=&quot;590&quot; y=&quot;170&quot; width=&quot;210&quot; height=&quot;200&quot; as=&quot;geometry&quot; /&gt;&#xA;          &lt;/mxCell&gt;&#xA;        &lt;/UserObject&gt;&#xA;        &lt;mxCell id=&quot;wBIvI0dQtw_C0u7ipJk1-6&quot; value=&quot;&quot; style=&quot;shape=flexArrow;endArrow=classic;html=1;rounded=0;exitX=0;exitY=0.5;exitDx=0;exitDy=0;&quot; parent=&quot;1&quot; source=&quot;wBIvI0dQtw_C0u7ipJk1-3&quot; target=&quot;wBIvI0dQtw_C0u7ipJk1-2&quot; edge=&quot;1&quot;&gt;&#xA;          &lt;mxGeometry width=&quot;50&quot; height=&quot;50&quot; relative=&quot;1&quot; as=&quot;geometry&quot;&gt;&#xA;            &lt;mxPoint x=&quot;390&quot; y=&quot;310&quot; as=&quot;sourcePoint&quot; /&gt;&#xA;            &lt;mxPoint x=&quot;440&quot; y=&quot;260&quot; as=&quot;targetPoint&quot; /&gt;&#xA;          &lt;/mxGeometry&gt;&#xA;        &lt;/mxCell&gt;&#xA;        &lt;mxCell id=&quot;wBIvI0dQtw_C0u7ipJk1-7&quot; value=&quot;&quot; style=&quot;shape=flexArrow;endArrow=classic;html=1;rounded=0;exitX=0;exitY=0.5;exitDx=0;exitDy=0;&quot; parent=&quot;1&quot; edge=&quot;1&quot;&gt;&#xA;          &lt;mxGeometry width=&quot;50&quot; height=&quot;50&quot; relative=&quot;1&quot; as=&quot;geometry&quot;&gt;&#xA;            &lt;mxPoint x=&quot;320&quot; y=&quot;269.5&quot; as=&quot;sourcePoint&quot; /&gt;&#xA;            &lt;mxPoint x=&quot;260&quot; y=&quot;269.5&quot; as=&quot;targetPoint&quot; /&gt;&#xA;          &lt;/mxGeometry&gt;&#xA;        &lt;/mxCell&gt;&#xA;        &lt;mxCell id=&quot;wBIvI0dQtw_C0u7ipJk1-8&quot; value=&quot;&quot; style=&quot;shape=image;html=1;verticalAlign=top;verticalLabelPosition=bottom;labelBackgroundColor=#ffffff;imageAspect=0;aspect=fixed;image=https://icons.diagrams.net/icon-cache1/Bootstrap_Vol_3-2297/filetype-xml-813.svg&quot; parent=&quot;1&quot; vertex=&quot;1&quot;&gt;&#xA;          &lt;mxGeometry x=&quot;530&quot; y=&quot;170&quot; width=&quot;70&quot; height=&quot;70&quot; as=&quot;geometry&quot; /&gt;&#xA;        &lt;/mxCell&gt;&#xA;        &lt;mxCell id=&quot;wBIvI0dQtw_C0u7ipJk1-9&quot; value=&quot;&quot; style=&quot;dashed=0;outlineConnect=0;html=1;align=center;labelPosition=center;verticalLabelPosition=bottom;verticalAlign=top;shape=mxgraph.weblogos.json&quot; parent=&quot;1&quot; vertex=&quot;1&quot;&gt;&#xA;          &lt;mxGeometry x=&quot;250&quot; y=&quot;170&quot; width=&quot;70&quot; height=&quot;75.8&quot; as=&quot;geometry&quot; /&gt;&#xA;        &lt;/mxCell&gt;&#xA;        &lt;mxCell id=&quot;wBIvI0dQtw_C0u7ipJk1-11&quot; value=&quot;DigitalTwinProfile&quot; style=&quot;shape=rect;html=1;whiteSpace=wrap;align=center;&quot; parent=&quot;1&quot; vertex=&quot;1&quot;&gt;&#xA;          &lt;mxGeometry x=&quot;615&quot; y=&quot;440&quot; width=&quot;160&quot; height=&quot;80&quot; as=&quot;geometry&quot; /&gt;&#xA;        &lt;/mxCell&gt;&#xA;        &lt;mxCell id=&quot;wBIvI0dQtw_C0u7ipJk1-13&quot; value=&quot;uses&quot; style=&quot;text;html=1;whiteSpace=wrap;strokeColor=none;fillColor=none;align=center;verticalAlign=middle;rounded=0;&quot; parent=&quot;1&quot; vertex=&quot;1&quot;&gt;&#xA;          &lt;mxGeometry x=&quot;680&quot; y=&quot;390&quot; width=&quot;60&quot; height=&quot;30&quot; as=&quot;geometry&quot; /&gt;&#xA;        &lt;/mxCell&gt;&#xA;        &lt;mxCell id=&quot;wBIvI0dQtw_C0u7ipJk1-14&quot; value=&quot;&quot; style=&quot;sketch=0;points=[[0,0,0],[0.25,0,0],[0.5,0,0],[0.75,0,0],[1,0,0],[0,1,0],[0.25,1,0],[0.5,1,0],[0.75,1,0],[1,1,0],[0,0.25,0],[0,0.5,0],[0,0.75,0],[1,0.25,0],[1,0.5,0],[1,0.75,0]];outlineConnect=0;fontColor=#232F3E;fillColor=#7AA116;strokeColor=#ffffff;dashed=0;verticalLabelPosition=bottom;verticalAlign=top;align=center;html=1;fontSize=12;fontStyle=0;aspect=fixed;shape=mxgraph.aws4.resourceIcon;resIcon=mxgraph.aws4.iot_twinmaker;&quot; parent=&quot;1&quot; vertex=&quot;1&quot;&gt;&#xA;          &lt;mxGeometry x=&quot;116&quot; y=&quot;460&quot; width=&quot;78&quot; height=&quot;78&quot; as=&quot;geometry&quot; /&gt;&#xA;        &lt;/mxCell&gt;&#xA;        &lt;mxCell id=&quot;wBIvI0dQtw_C0u7ipJk1-16&quot; value=&quot;deploys&quot; style=&quot;text;html=1;whiteSpace=wrap;strokeColor=none;fillColor=none;align=center;verticalAlign=middle;rounded=0;&quot; parent=&quot;1&quot; vertex=&quot;1&quot;&gt;&#xA;          &lt;mxGeometry x=&quot;160&quot; y=&quot;400&quot; width=&quot;60&quot; height=&quot;30&quot; as=&quot;geometry&quot; /&gt;&#xA;        &lt;/mxCell&gt;&#xA;        &lt;mxCell id=&quot;wBIvI0dQtw_C0u7ipJk1-17&quot; value=&quot;&quot; style=&quot;shape=flexArrow;endArrow=classic;html=1;rounded=0;exitX=0.5;exitY=1;exitDx=0;exitDy=0;&quot; parent=&quot;1&quot; source=&quot;wBIvI0dQtw_C0u7ipJk1-1&quot; target=&quot;wBIvI0dQtw_C0u7ipJk1-14&quot; edge=&quot;1&quot;&gt;&#xA;          &lt;mxGeometry width=&quot;50&quot; height=&quot;50&quot; relative=&quot;1&quot; as=&quot;geometry&quot;&gt;&#xA;            &lt;mxPoint x=&quot;140&quot; y=&quot;410&quot; as=&quot;sourcePoint&quot; /&gt;&#xA;            &lt;mxPoint x=&quot;80&quot; y=&quot;410&quot; as=&quot;targetPoint&quot; /&gt;&#xA;          &lt;/mxGeometry&gt;&#xA;        &lt;/mxCell&gt;&#xA;      &lt;/root&gt;&#xA;    &lt;/mxGraphModel&gt;&#xA;  &lt;/diagram&gt;&#xA;&lt;/mxfile&gt;&#xA;"><defs/><rect fill="#ffffff" style="fill: light-dark(#ffffff, var(--ge-dark-color, #121212));" width="100%" height="100%" x="0" y="0"/><g><g data-cell-id="0"><g data-cell-id="1"><g data-cell-id="wBIvI0dQtw_C0u7ipJk1-1"><g transform="translate(0.5,0.5)"><ellipse cx="105" cy="100" rx="105" ry="100" fill="#ffffff" style="fill: light-dark(#ffffff, var(--ge-dark-color, #121212)); stroke: light-dark(rgb(0, 0, 0), rgb(255, 255, 255));" stroke="#000000" pointer-events="all"/></g><g><g><switch><foreignObject style="overflow: visible; text-align: left;" pointer-events="none" width="100%" height="100%" requiredFeatures="http://www.w3.org/TR/SVG11/feature#Extensibility"><div xmlns="http://www.w3.org/1999/xhtml" style="display: flex; align-items: unsafe center; justify-content: unsafe center; width: 208px; height: 1px; padding-top: 100px; margin-left: 1px;"><div style="box-sizing: border-box; font-size: 0; text-align: center; color: #000000; "><div style="display: inline-block; font-size: 12px; font-family: Helvetica; color: light-dark(#000000, #ffffff); line-height: 1.2; pointer-events: all; white-space: normal; word-wrap: normal; "><strong>digital-twin-manager</strong></div></div></div></foreignObject><text x="105" y="104" fill="light-dark(#000000, #ffffff)" font-family="Helvetica" font-size="12px" text-anchor="middle">digital-twin-manager</text></switch></g></g></g><g data-cell-id="wBIvI0dQtw_C0u7ipJk1-2"><g transform="translate(0.5,0.5)"><ellipse cx="375" cy="100" rx="105" ry="100" fill="#ffffff" style="fill: light-dark(#ffffff, var(--ge-dark-color, #121212)); stroke: light-dark(rgb(0, 0, 0), rgb(255, 255, 255));" stroke="#000000" pointer-events="all"/></g><g><g><switch><foreignObject style="overflow: visible; text-align: left;" pointer-events="none" width="100%" height="100%" requiredFeatures="http://www.w3.org/TR/SVG11/feature#Extensibility"><div xmlns="http://www.w3.org/1999/xhtml" style="display: flex; align-items: unsafe center; justify-content: unsafe center; width: 208px; height: 1px; padding-top: 100px; margin-left: 271px;"><div style="box-sizing: border-box; font-size: 0; text-align: center; color: #000000; "><div style="display: inline-block; font-size: 12px; font-family: Helvetica; color: light-dark(#000000, #ffffff); line-height: 1.2; pointer-events: all; white-space: normal; word-wrap: normal; "><b><u>SysML2CMAdapter</u></b></div></div></div></foreignObject><text x="375" y="104" fill="light-dark(#000000, #ffffff)" font-family="Helvetica" font-size="12px" text-anchor="middle">SysML2CMAdapter</text></switch></g></g></g><g data-cell-id="wBIvI0dQtw_C0u7ipJk1-12"><g transform="translate(0.5,0.5)"><path d="M 645 200 L 645 263.63" fill="none" stroke="#000000" style="stroke: light-dark(rgb(0, 0, 0), rgb(255, 255, 255));" stroke-miterlimit="10" stroke-dasharray="3 3" pointer-events="stroke"/><path d="M 645 268.88 L 641.5 261.88 L 645 263.63 L 648.5 261.88 Z" fill="#000000" style="fill: light-dark(rgb(0, 0, 0), rgb(255, 255, 255)); stroke: light-dark(rgb(0, 0, 0), rgb(255, 255, 255));" stroke="#000000" stroke-miterlimit="10" pointer-events="all"/></g></g><g data-cell-id="wBIvI0dQtw_C0u7ipJk1-3"><a xlink:href="https://app.diagrams.net/&#xA;&lt;strong class=&quot;mr-2 flex-self-stretch d-none d-md-block no-wrap overflow-x-hidden&quot;&gt;&lt;br&gt;    &lt;a data-pjax=&quot;#repo-content-pjax-container&quot; data-turbo-frame=&quot;repo-content-turbo-frame&quot; class=&quot;d-block overflow-x-hidden color-fg-default&quot; style=&quot;text-overflow: ellipsis;&quot; href=&quot;https://github.com/cloud-DTs/SysML2CMAdapter&quot;&gt;SysML2CMAdapter&lt;/a&gt;&lt;br&gt;  &lt;/strong&gt;&lt;br&gt;&lt;br&gt;  &lt;span&gt;&lt;/span&gt;&lt;span class=&quot;Label Label--secondary v-align-middle mr-1 d-none d-md-block&quot;&gt;&lt;/span&gt;&#xA;&#xA;"><g transform="translate(0.5,0.5)"><ellipse cx="645" cy="100" rx="105" ry="100" fill="#ffffff" style="fill: light-dark(#ffffff, var(--ge-dark-color, #121212)); stroke: light-dark(rgb(0, 0, 0), rgb(255, 255, 255));" stroke="#000000" pointer-events="all"/></g><g><g><switch><foreignObject style="overflow: visible; text-align: left;" pointer-events="none" width="100%" height="100%" requiredFeatures="http://www.w3.org/TR/SVG11/feature#Extensibility"><div xmlns="http://www.w3.org/1999/xhtml" style="display: flex; align-items: unsafe center; justify-content: unsafe center; width: 208px; height: 1px; padding-top: 100px; margin-left: 541px;"><div style="box-sizing: border-box; font-size: 0; text-align: center; color: #000000; "><div style="display: inline-block; font-size: 12px; font-family: Helvetica; color: light-dark(#000000, #ffffff); line-height: 1.2; pointer-events: all; white-space: normal; word-wrap: normal; "><strong class="mr-2 flex-self-stretch d-none d-md-block no-wrap overflow-x-hidden">Enterprise Architect</strong></div></div></div></foreignObject><text x="645" y="104" fill="light-dark(#000000, #ffffff)" font-family="Helvetica" font-size="12px" text-anchor="middle">Enterprise Architect</text></switch></g></g></a></g><g data-cell-id="wBIvI0dQtw_C0u7ipJk1-6"><g transform="translate(0.5,0.5)"><path d="M 539.5 95 L 539.5 105 L 499.5 105 L 499.5 115.5 L 480.5 100 L 499.5 84.5 L 499.5 95 Z" fill="none" stroke="#000000" style="stroke: light-dark(rgb(0, 0, 0), rgb(255, 255, 255));" stroke-miterlimit="10" pointer-events="all"/></g></g><g data-cell-id="wBIvI0dQtw_C0u7ipJk1-7"><g transform="translate(0.5,0.5)"><path d="M 269.5 94.5 L 269.5 104.5 L 229.5 104.5 L 229.5 115 L 210.5 99.5 L 229.5 84 L 229.5 94.5 Z" fill="none" stroke="#000000" style="stroke: light-dark(rgb(0, 0, 0), rgb(255, 255, 255));" stroke-miterlimit="10" pointer-events="all"/></g></g><g data-cell-id="wBIvI0dQtw_C0u7ipJk1-8"><g><image x="480" y="0" width="70" height="70" xlink:href="https://icons.diagrams.net/icon-cache1/Bootstrap_Vol_3-2297/filetype-xml-813.svg" preserveAspectRatio="none"/></g></g><g data-cell-id="wBIvI0dQtw_C0u7ipJk1-9"><g transform="translate(0.5,0.5)"><path d="M 223.22 75.8 C 218.16 75.8 211.72 71.64 211.72 63.75 L 211.72 55.34 L 203.15 55.34 C 201.65 55.34 200 54.49 200.03 51.92 L 200.03 35.36 C 200.03 33.81 200.93 32.17 202.91 32.12 L 211.72 32.12 L 211.72 11.37 C 211.72 5.69 216.62 0 223.69 0 L 246.49 0 C 248.53 0 251.18 1.45 253.72 3.93 L 266.39 16.67 C 269.49 20.04 270 21.77 270 23.93 L 270 64.09 C 270 70.1 265.34 75.8 257.72 75.8 Z" fill="#000000" style="fill: light-dark(rgb(0, 0, 0), rgb(237, 237, 237));" stroke="none" pointer-events="all"/><path d="M 240.47 49.58 L 240.47 37.06 L 244.43 37.06 L 248.82 43.99 L 248.82 37.06 L 251.89 37.06 L 251.89 49.58 L 248.67 49.58 L 243.58 41.29 L 243.58 49.58 Z M 234.7 43.4 C 234.69 41.89 234.28 39.4 231.65 39.33 C 229.7 39.3 228.71 41.33 228.71 43.26 C 228.77 46.2 230.13 47.37 231.74 47.37 C 233.53 47.33 234.68 45.87 234.7 43.4 Z M 225.26 42.55 C 225.34 39.28 227.91 37.1 230.4 36.87 C 233.13 36.63 234.5 37.13 235.74 37.91 C 237.41 39.11 238.53 41.32 238.06 44.79 C 237.61 47.23 236.07 49.6 232.36 49.85 C 231 49.92 228.36 49.99 226.56 47.58 C 225.73 46.38 225.22 45.51 225.26 42.55 Z M 213.19 45.77 L 213.65 45.72 C 215.75 47.29 217.29 47.4 218.78 47.35 C 219.66 47.23 220.41 47.01 220.47 46.24 C 220.51 45.69 219.93 45.31 219.36 45.17 C 217.6 44.71 216.16 44.86 214.34 43.46 C 212.89 42.1 212.96 40.46 213.66 39.16 C 214.9 37.24 217.05 36.94 218.36 36.83 C 220.57 36.81 222.33 37.19 223.44 37.73 L 223.43 40.67 L 222.94 40.71 C 221.93 39.92 220.82 39.41 219.27 39.32 C 218.41 39.31 217.38 39.3 216.76 40 C 216.43 41.17 217.29 41.25 218.04 41.42 C 220.02 41.87 221.13 41.99 222.65 42.95 C 224.58 44.43 223.97 46.96 222.96 48.1 C 221.63 49.39 220.35 49.86 217.92 49.85 C 216.52 49.83 214.81 49.63 213.17 48.83 Z M 203.29 46.83 C 204.07 47.09 204.63 47.45 206.44 47.23 C 207.09 47.05 207.76 46.56 207.76 45.57 L 207.76 39.51 L 204.91 39.51 L 204.91 37.06 L 211.13 37.06 L 211.13 46.31 C 210.87 48.24 209.78 49.26 208.09 49.59 C 206.91 49.84 205.53 49.98 203.29 49.57 Z M 217.52 55.34 L 252.48 55.34 C 254.3 55.34 255.44 53.93 255.44 52.17 L 255.44 35.09 C 255.44 33.39 254.22 32.12 252.32 32.12 L 217.52 32.12 L 217.52 11.76 C 217.52 7.61 220.96 5.79 223.33 5.79 L 244.21 5.79 C 246.33 5.79 246.7 8.23 246.7 9.52 L 246.71 20.31 C 246.71 22.3 248.38 23.31 249.64 23.31 L 260.53 23.31 C 262.02 23.31 264.24 23.77 264.24 26.39 L 264.24 63.83 C 264.24 67.16 262.07 69.95 258.16 69.95 L 223.53 69.95 C 220.7 69.95 217.52 67.95 217.52 63.92 Z" fill="#ffffff" style="fill: light-dark(rgb(255, 255, 255), rgb(18, 18, 18));" stroke="none" pointer-events="all"/></g></g><g data-cell-id="wBIvI0dQtw_C0u7ipJk1-11"><g transform="translate(0.5,0.5)"><rect x="565" y="270" width="160" height="80" fill="#ffffff" style="fill: light-dark(#ffffff, var(--ge-dark-color, #121212)); stroke: light-dark(rgb(0, 0, 0), rgb(255, 255, 255));" stroke="#000000" pointer-events="all"/></g><g><g><switch><foreignObject style="overflow: visible; text-align: left;" pointer-events="none" width="100%" height="100%" requiredFeatures="http://www.w3.org/TR/SVG11/feature#Extensibility"><div xmlns="http://www.w3.org/1999/xhtml" style="display: flex; align-items: unsafe center; justify-content: unsafe center; width: 158px; height: 1px; padding-top: 310px; margin-left: 566px;"><div style="box-sizing: border-box; font-size: 0; text-align: center; color: #000000; "><div style="display: inline-block; font-size: 12px; font-family: Helvetica; color: light-dark(#000000, #ffffff); line-height: 1.2; pointer-events: all; white-space: normal; word-wrap: normal; ">DigitalTwinProfile</div></div></div></foreignObject><text x="645" y="314" fill="light-dark(#000000, #ffffff)" font-family="Helvetica" font-size="12px" text-anchor="middle">DigitalTwinProfile</text></switch></g></g></g><g data-cell-id="wBIvI0dQtw_C0u7ipJk1-13"><g transform="translate(0.5,0.5)"><rect x="630" y="220" width="60" height="30" fill="none" stroke="none" pointer-events="all"/></g><g><g><switch><foreignObject style="overflow: visible; text-align: left;" pointer-events="none" width="100%" height="100%" requiredFeatures="http://www.w3.org/TR/SVG11/feature#Extensibility"><div xmlns="http://www.w3.org/1999/xhtml" style="display: flex; align-items: unsafe center; justify-content: unsafe center; width: 58px; height: 1px; padding-top: 235px; margin-left: 631px;"><div style="box-sizing: border-box; font-size: 0; text-align: center; color: #000000; "><div style="display: inline-block; font-size: 12px; font-family: Helvetica; color: light-dark(#000000, #ffffff); line-height: 1.2; pointer-events: all; white-space: normal; word-wrap: normal; ">uses</div></div></div></foreignObject><text x="660" y="239" fill="light-dark(#000000, #ffffff)" font-family="Helvetica" font-size="12px" text-anchor="middle">uses</text></switch></g></g></g><g data-cell-id="wBIvI0dQtw_C0u7ipJk1-14"><g transform="translate(0.5,0.5)"><path d="M 66 290 L 144 290 L 144 368 L 66 368 Z" fill="#7aa116" style="fill: light-dark(rgb(122, 161, 22), rgb(97, 130, 11));" stroke="none" pointer-events="all"/><path d="M 135.49 328.48 C 135.49 319.9 128.97 317.32 125.9 316.58 C 125.43 312.42 123.3 309.44 120.1 308.52 C 117.86 307.89 115.44 308.44 113.69 309.99 C 112.8 307.88 111.54 305.95 109.97 304.3 C 105.4 299.29 98.13 297.8 91.96 300.61 C 86.55 302.97 82.47 309.48 82.47 315.75 C 82.47 316.13 82.49 316.5 82.51 316.88 C 79.56 317.88 74.51 320.72 74.51 328.39 C 74.5 328.86 74.53 329.33 74.57 329.8 C 75.27 335.43 79.73 339.84 85.36 340.49 L 85.36 359.11 C 85.36 359.4 85.48 359.68 85.68 359.88 C 85.88 360.09 86.16 360.2 86.45 360.2 L 110.43 360.2 C 110.72 360.2 110.99 360.09 111.2 359.88 C 111.4 359.68 111.52 359.4 111.52 359.11 L 111.52 351.48 L 115.88 351.48 L 115.88 349.3 L 111.52 349.3 L 111.52 335.13 C 111.52 334.84 111.4 334.57 111.2 334.36 C 110.99 334.16 110.72 334.04 110.43 334.04 L 86.45 334.04 C 85.85 334.04 85.36 334.53 85.36 335.13 L 85.36 338.29 C 80.85 337.68 77.31 334.12 76.74 329.6 C 76.7 329.2 76.68 328.79 76.68 328.39 C 76.68 321.72 81.14 319.48 83.86 318.74 C 84.43 318.64 84.83 318.12 84.76 317.54 C 84.69 316.95 84.66 316.35 84.66 315.75 C 84.66 310.38 88.25 304.61 92.83 302.61 C 98.17 300.17 104.47 301.47 108.4 305.81 C 110.16 307.69 111.48 309.92 112.27 312.37 C 112.4 312.75 112.74 313.03 113.14 313.09 C 113.55 313.15 113.95 312.98 114.19 312.65 C 115.35 310.91 117.48 310.09 119.51 310.62 C 121.92 311.31 123.52 313.8 123.78 317.3 L 123.77 317.31 C 123.69 317.89 124.08 318.44 124.66 318.54 C 127.26 319 133.31 320.89 133.31 328.48 C 133.57 333.17 130.31 337.33 125.68 338.2 L 125.68 334.04 L 123.51 334.04 L 123.51 339.49 L 123.5 340.58 L 123.51 340.58 L 123.51 342.76 L 125.68 342.76 L 125.68 340.41 C 128.37 339.85 135.49 337.5 135.49 328.48 Z M 87.54 336.22 L 109.34 336.22 L 109.34 358.02 L 87.54 358.02 Z M 109.34 325.32 L 115.88 325.32 L 115.88 327.5 L 109.34 327.5 Z M 100.62 325.32 L 104.98 325.32 L 104.98 327.5 L 101.71 327.5 L 101.71 330.77 L 99.53 330.77 L 99.53 326.41 C 99.53 326.12 99.64 325.85 99.85 325.64 C 100.05 325.44 100.33 325.32 100.62 325.32 Z M 123.51 346.03 L 125.69 346.03 L 125.69 350.39 C 125.69 350.68 125.57 350.96 125.37 351.16 C 125.16 351.37 124.89 351.48 124.6 351.48 L 120.24 351.48 L 120.24 349.3 L 123.51 349.3 Z M 123.51 330.77 L 123.51 327.5 L 120.24 327.5 L 120.24 325.32 L 124.6 325.32 C 124.89 325.32 125.16 325.44 125.37 325.64 C 125.57 325.85 125.69 326.12 125.69 326.41 L 125.69 330.77 Z" fill="#ffffff" style="fill: light-dark(rgb(255, 255, 255), rgb(18, 18, 18));" stroke="none" pointer-events="all"/></g></g><g data-cell-id="wBIvI0dQtw_C0u7ipJk1-16"><g transform="translate(0.5,0.5)"><rect x="110" y="230" width="60" height="30" fill="none" stroke="none" pointer-events="all"/></g><g><g><switch><foreignObject style="overflow: visible; text-align: left;" pointer-events="none" width="100%" height="100%" requiredFeatures="http://www.w3.org/TR/SVG11/feature#Extensibility"><div xmlns="http://www.w3.org/1999/xhtml" style="display: flex; align-items: unsafe center; justify-content: unsafe center; width: 58px; height: 1px; padding-top: 245px; margin-left: 111px;"><div style="box-sizing: border-box; font-size: 0; text-align: center; color: #000000; "><div style="display: inline-block; font-size: 12px; font-family: Helvetica; color: light-dark(#000000, #ffffff); line-height: 1.2; pointer-events: all; white-space: normal; word-wrap: normal; ">deploys</div></div></div></foreignObject><text x="140" y="249" fill="light-dark(#000000, #ffffff)" font-family="Helvetica" font-size="12px" text-anchor="middle">deploys</text></switch></g></g></g><g data-cell-id="wBIvI0dQtw_C0u7ipJk1-17"><g transform="translate(0.5,0.5)"><path d="M 100 200.5 L 110 200.5 L 110 270.5 L 120.5 270.5 L 105 289.5 L 89.5 270.5 L 100 270.5 Z" fill="none" stroke="#000000" style="stroke: light-dark(rgb(0, 0, 0), rgb(255, 255, 255));" stroke-miterlimit="10" pointer-events="all"/></g></g></g></g></g></svg>